<svg width="286" height="48" fill="none" xmlns="http://www.w3.org/2000/svg">
  <path d="M24.067 29.912a5.872 5.872 0 0 0 5.875-5.87c0-3.242-2.63-5.87-5.875-5.87a5.872 5.872 0 0 0-5.876 5.87c0 3.242 2.63 5.87 5.876 5.87Z" fill="#000"/>
  <path d="m42.424 8.501-2.819 2.816a19.973 19.973 0 0 1 4.563 12.725c0 4.825-1.714 9.256-4.563 12.723l-3.622-3.619a14.908 14.908 0 0 0 3.089-9.104c0-3.633-1.321-7.142-3.717-9.876a15.011 15.011 0 0 0-9.308-4.984V4.06c4.057.4 7.767 2.006 10.755 4.456L39.62 5.7A23.98 23.98 0 0 0 24.067 0C10.774-.002 0 10.761 0 24.042c0 12.61 9.72 22.946 22.084 23.954v-3.969c-10.158-.997-18.12-9.578-18.12-19.983 0-10.408 7.962-18.989 18.12-19.986v5.124a15.016 15.016 0 0 0-8.626 4.262 14.99 14.99 0 0 0-4.263 8.62h4.018c.937-5.14 5.441-9.054 10.854-9.054a11.06 11.06 0 0 1 7.804 3.236 11.04 11.04 0 0 1 3.238 7.798 11.04 11.04 0 0 1-3.238 7.796 11.061 11.061 0 0 1-7.804 3.235c-5.413 0-9.917-3.912-10.856-9.053H9.193a14.986 14.986 0 0 0 9.132 11.867 15.02 15.02 0 0 0 14.856-1.94l3.62 3.617a20.023 20.023 0 0 1-10.752 4.463V48c12.362-1.008 22.084-11.346 22.084-23.956 0-5.927-2.152-11.35-5.71-15.541V8.5ZM70.46 27.623v14.4h-7.136V5.814h7.138v14.47c1.257-.608 2.682-.91 4.266-.91.933 0 2.59.164 4.969.489 2.704.373 4.687.56 5.947.56 1.772 0 3.288-.303 4.548-.908v-13.7h7.136v36.208h-7.136v-15.17c-1.213.607-2.635.91-4.268.91-1.26 0-3.125-.164-5.599-.49-2.378-.326-4.151-.49-5.315-.49-1.727 0-3.243.28-4.548.839h-.002ZM128.17 43.14h-.141c-5.317 0-9.469-1.235-12.453-3.704-3.312-2.611-4.967-6.477-4.967-11.603V5.814h7.207v22.02c0 2.934.956 5.033 2.868 6.29 1.632 1.165 4.104 1.747 7.416 1.747 3.312 0 5.808-.582 7.484-1.747 1.867-1.257 2.8-3.356 2.8-6.29V5.814h7.206v22.02c0 5.126-1.632 8.992-4.896 11.603-3.032 2.47-7.207 3.704-12.524 3.704Zm37.905-30.127v8.248c1.447-.837 3.195-1.42 5.248-1.746 1.585-.234 3.615-.35 6.087-.35h3.708c1.259 0 2.181-.257 2.761-.769.585-.514.876-1.282.876-2.306 0-1.027-.325-1.794-.978-2.308-.654-.514-1.539-.769-2.659-.769h-15.043Zm0 15.589v6.15h15.043c1.725 0 3.032-.256 3.917-.77 1.166-.698 1.751-1.84 1.751-3.424 0-1.351-.457-2.365-1.366-3.04-.908-.676-2.342-1.013-4.304-1.013h-3.706c-3.219 0-5.552.139-6.997.419-1.259.232-2.704.791-4.338 1.678Zm27.917 2.096c0 3.541-1.143 6.314-3.428 8.319-2.285 2.003-5.435 3.006-9.446 3.006h-22.248V5.814h22.25c1.958 0 3.778.43 5.456 1.293a10.263 10.263 0 0 1 4.024 3.634c1.002 1.56 1.505 3.32 1.505 5.278 0 2.702-.794 4.775-2.381 6.221 1.352.792 2.404 1.945 3.15 3.46.747 1.514 1.12 3.18 1.12 4.998l-.002.002Zm28.041 12.442h-.139c-5.319 0-9.469-1.235-12.455-3.704-3.312-2.611-4.967-6.477-4.967-11.603V5.814h7.207v22.02c0 2.934.956 5.033 2.868 6.29 1.632 1.165 4.104 1.747 7.416 1.747 3.314 0 5.808-.582 7.486-1.747 1.867-1.257 2.8-3.356 2.8-6.29V5.814h7.206v22.02c0 5.126-1.634 8.992-4.898 11.603-3.032 2.47-7.206 3.704-12.524 3.704Zm59.248-11.184 4.197 6.012a20.651 20.651 0 0 1-6.821 3.844 24.798 24.798 0 0 1-8.081 1.328c-3.733 0-7.206-.769-10.425-2.306-3.314-1.585-5.923-3.775-7.837-6.572-2.053-3.074-3.077-6.57-3.077-10.483 0-3.916 1.047-7.387 3.148-10.416 1.912-2.796 4.548-4.964 7.905-6.5 3.219-1.493 6.67-2.236 10.355-2.236a26.68 26.68 0 0 1 7.836 1.153c2.518.768 4.758 1.898 6.718 3.39l-4.828 5.592a15.61 15.61 0 0 0-4.582-2.133 18.535 18.535 0 0 0-5.142-.734c-2.427 0-4.666.443-6.719 1.328-2.145.886-3.825 2.19-5.038 3.915-1.352 1.91-2.028 4.171-2.028 6.78 0 2.61.676 4.846 2.028 6.71 1.261 1.724 2.987 3.052 5.179 3.984 2.005.837 4.22 1.258 6.646 1.258a16.535 16.535 0 0 0 5.668-1.012 14.755 14.755 0 0 0 4.896-2.902h.002Z" fill="#000"/>
</svg>
