<svg xmlns="http://www.w3.org/2000/svg" x="0px" y="0px"
width="30" height="30"
viewBox="0 0 48 48"
style=" fill:#000000;"><path fill="#d7ccc8" d="M24,46c-8.8,0-16-7.3-16-16.3V18.3C8,9.3,15.2,2,24,2s16,7.3,16,16.3v11.5C40,38.7,32.8,46,24,46z"></path><path fill="#448aff" d="M24,7c-6.1,0-11,5.1-11,11.3v11.3C13,35.9,17.9,41,24,41s11-5.1,11-11.3V18.3C35,12.1,30.1,7,24,7z"></path><path fill="#bcaaa4" d="M35,16c-1-5.1-5.5-9-10.8-9s-9.7,3.9-10.8,9H35z"></path><path fill="#efebe9" d="M27,13h-6c-0.6,0-1-0.4-1-1s0.4-1,1-1h6c0.6,0,1,0.4,1,1S27.6,13,27,13z"></path><path fill="#fff" d="M33,25c-0.1,0-0.1,0-0.2,0c-0.3-0.9-1-1.6-1.9-1.9c-0.4-1.8-2-3.2-3.9-3.2s-3.5,1.3-3.9,3.1 c-0.2,0-0.4-0.1-0.6-0.1c-1.3,0-2.3,0.9-2.5,2.2c-1.2,0.4-2,1.5-2,2.8c0,1.7,1.3,3,3,3h12c1.7,0,3-1.3,3-3C36,26.2,34.7,25,33,25z"></path><path fill="#a1887f" d="M24,42c-6.6,0-12-5.6-12-12.4V18.3C12,11.5,17.4,6,24,6c6.6,0,12,5.5,12,12.3v11.4 C36,36.5,30.6,42,24,42z M24,8c-5.5,0-10,4.6-10,10.3v11.3C14,35.3,18.5,40,24,40c5.5,0,10-4.6,10-10.3V18.3C34,12.6,29.5,8,24,8z"></path></svg>