<svg xmlns="http://www.w3.org/2000/svg" fill="none" viewBox="0 0 125 32" class="h-8 w-auto text-white"><path fill="#F25533" fill-rule="evenodd" d="M6.089 21.702V18.77h3.838v2.958c3.548-.848 6.188-4.058 6.188-7.888 0-3.117-2.212-7.503-4.777-8.86.345 1.217-.173 2.803-.863 2.664-.26-.052-.287-.463-.329-1.127-.088-1.39-.246-3.89-2.78-6.516-.202 1.834-3.11 5.57-5.002 8.002-.259.332-.498.64-.71.915A8.136 8.136 0 0 0 0 13.84a8.1 8.1 0 0 0 6.089 7.863Zm4.101-6.229a2.146 2.146 0 0 1-2.14 2.153 2.146 2.146 0 0 1-2.14-2.153c0-.491.169-.953.44-1.307l.188-.243c.503-.646 1.275-1.638 1.329-2.125 1.593 1.076 2.323 2.847 2.323 3.675Z" clip-rule="evenodd"></path><path fill="#fff" d="M19.72 18.409c-1.69 0-2.968.618-3.66 1.57v-1.21h-3.837v12.87h3.838v-7.027c0-1.827.972-2.65 2.38-2.65 1.227 0 2.225.746 2.225 2.342v7.336h3.838v-7.903c0-3.475-2.2-5.328-4.785-5.328ZM32.768 32c2.507 0 4.682-1.313 5.782-3.32l-3.352-1.931c-.409.9-1.356 1.441-2.481 1.441-1.663 0-2.891-1.21-2.891-2.986 0-1.776 1.228-2.985 2.89-2.985 1.126 0 2.047.54 2.482 1.441l3.352-1.956c-1.1-1.982-3.3-3.295-5.782-3.295-3.889 0-6.78 2.96-6.78 6.796 0 3.835 2.891 6.795 6.78 6.795Zm8.733-14.363c1.254 0 2.303-1.056 2.303-2.317 0-1.261-1.049-2.317-2.303-2.317-1.253 0-2.302 1.056-2.302 2.317 0 1.261 1.049 2.317 2.302 2.317ZM39.583 31.64h3.837V18.77h-3.837v12.87Zm15.421-18.019v6.358c-.844-.978-2.098-1.57-3.812-1.57-3.352 0-6.115 2.96-6.115 6.795 0 3.836 2.764 6.796 6.115 6.796 1.714 0 2.968-.592 3.812-1.57v1.21h3.838V13.62h-3.838ZM51.96 28.345c-1.766 0-3.045-1.21-3.045-3.14 0-1.931 1.28-3.14 3.045-3.14s3.044 1.209 3.044 3.14c0 1.93-1.279 3.14-3.044 3.14Zm12.614-1.596h9.082a7.529 7.529 0 0 0 .154-1.544c0-3.887-2.763-6.796-6.499-6.796-4.042 0-6.805 2.96-6.805 6.796 0 3.835 2.712 6.795 7.087 6.795 2.43 0 4.324-.9 5.577-2.651l-3.07-1.776c-.512.566-1.407.978-2.456.978-1.407 0-2.584-.464-3.07-1.802Zm-.077-2.883c.358-1.313 1.33-2.034 2.789-2.034 1.151 0 2.302.541 2.712 2.034h-5.501Zm18.474-5.457c-1.689 0-2.968.618-3.659 1.57v-1.21h-3.837v12.87h3.837v-7.027c0-1.827.973-2.65 2.38-2.65 1.228 0 2.226.746 2.226 2.342v7.336h3.837v-7.903c0-3.475-2.2-5.328-4.784-5.328Zm14.404 4.067v-3.707H94.74v-3.603l-3.837 1.158v2.445h-2.047v3.707h2.047v4.556c0 3.604 1.458 5.122 6.472 4.608v-3.501c-1.688.103-2.635 0-2.635-1.107v-4.556h2.635ZM101.461 32c1.331 0 2.431-1.107 2.431-2.445 0-1.339-1.1-2.446-2.431-2.446-1.33 0-2.43 1.107-2.43 2.445 0 1.339 1.1 2.446 2.43 2.446Zm6.403-14.363c1.254 0 2.303-1.056 2.303-2.317 0-1.261-1.049-2.317-2.303-2.317-1.253 0-2.302 1.056-2.302 2.317 0 1.261 1.049 2.317 2.302 2.317Zm-1.919 14.003h3.838V18.77h-3.838v12.87Zm12.275.36c3.761 0 6.78-2.96 6.78-6.796 0-3.835-3.019-6.795-6.78-6.795s-6.78 2.96-6.78 6.796c0 3.835 3.019 6.795 6.78 6.795Zm0-3.758c-1.663 0-2.942-1.21-2.942-3.038 0-1.827 1.279-3.037 2.942-3.037 1.663 0 2.942 1.21 2.942 3.037 0 1.828-1.279 3.038-2.942 3.038ZM6.09 31.64h3.837v-9.884s-3.838.694-3.838 4.395v5.49Z"></path></svg>
